<svg xmlns="http://www.w3.org/2000/svg" xmlns:xlink="http://www.w3.org/1999/xlink" width="3000" height="3000" shape-rendering="geometricPrecision" image-rendering="optimizeQuality" fill-rule="evenodd"><defs><clipPath id="A"><path d="M1451 2138s-35-31-41-43 1-55 22-74c21-20 59-42 89-27s70 44 73 53 7 28 7 28c-22 14-45 22-52 56-17-3-36-3-53-2-41 3-62 18-83 42-21 23-26 95-26 106 0 2 1 5 4 9-10-3-33-11-51-23-21-14-45-24-47-33-5-21 5-69 25-93s25-32 49-34c23-2 38-5 38-5l46 40zm-2 65l-4 4c3-9 6-16 9-18 10-7 38-31 63-28 48 6 76 62 60 97-8 16-51 51-51 51l-2-5c6-4 16-8 23-19-9 9-22 14-36 14-20 0-47-9-63-24 4 6 8 10 14 15 5 5 54 15 64 19-9 6-40 2-59-5-38-15-40-75-18-101zm106 11c1 2 2 5 4 8-1-4-3-6-4-8zm-97-20c5-3 12-5 19-7l-2 1c-6 0-12 3-17 6zm91-63c3-3 64-72 116-58 15 4 51 43 57 67 7 24 6 55-6 75-12 19-21 34-37 38-11 4-31-2-42-5-2-25-16-51-28-76s-35-36-60-41zm88 119c18 12 59 40 63 51 5 15 15 42-1 57-17 15-43 45-52 53-9 9-34 36-61 31-12-2-24-12-37-14-23-4-28-41-30-57h8c7 0 58-42 93-76 14-13 18-28 17-45zm-118 121c-1 16-4 49-14 55-9 6-18 14-26 16-17 4-25 17-69-6-43-22-98-70-96-88 3-18 2-49 18-56 13-5 48-5 60-5 9 11 31 27 53 39 29 17 59 44 59 44s8 1 15 1zm-14-12s-27-25-54-40c-27-14-53-35-53-45s5-75 24-96 38-35 75-38c38-3 84 1 103 39 19 39 41 82 10 112-32 30-78 69-85 69-6 1-20-1-20-1z"/></clipPath><path id="B" d="M532 1522h62v120h-62z"/></defs><path d="M2142 100h-2H873h-2c-2 6-3 11-5 17-79 186-281 201-402 196h-4 0-4l-2 1127c-18 656 388 1235 1101 1197 490-27 1007-383 1003-1197l-2-1127h-4 0-3c-121 5-324-10-403-196-1-6-3-11-4-17z"/><path d="M2121 127H891c-71 169-237 216-404 214v1h-4l-2 1099c-9 335 96 687 346 920 200 187 456 263 726 249 252-14 492-114 669-295 229-234 310-555 309-875l-2-1098h-5v-1c-166 2-332-46-403-214zm-13 21H904c-73 158-231 211-396 214v1h-4l-2 1078c-9 329 94 676 339 906 196 182 447 257 711 242 246-13 482-111 655-288 225-231 304-547 304-861l-2-1077h-6v-1c-165-3-321-56-395-214z" fill="#e62129"/><path d="M2100 161H913c-76 155-230 209-392 214v2h-4l-2 1064v1c-9 325 93 668 336 895 192 180 439 253 700 239 243-13 476-110 646-285 223-227 301-540 300-851l-2-1063h-6v-2c-161-6-314-60-389-214z" stroke="#000" stroke-width=".9" fill="#00a2e9"/><path d="M543 1771c4 21 8 44 17 60 20 4 24 28 67 32 52 5 56-31 86-32 32-1 26 39 104 32v-2c16-8 43-29 59-30 27-1 27 28 74 32 52 5 56-31 86-32s50 46 96 30v1c1-1 2-1 3-2s3-1 5-2v-1c16-10 38-26 52-26 27-1 27 28 74 32 52 5 55-31 85-32 32-1 27 39 105 32v-2c16-8 43-29 59-30 27-1 27 28 74 32 52 5 55-31 85-32 31-1 51 48 99 29 0 3 47-29 60-29 27-1 27 28 74 32 52 5 56-31 86-32 32-1 26 39 104 32v-2c16-8 43-29 59-30 27-1 27 28 74 32 52 5 55-31 86-32 30-1 50 46 96 30v1c0-1 1-1 2-2 2-1 4-1 6-2v-1c8-5 20-13 29-18 6-24 11-48 16-72-10 11-17 17-22 23-6 6-18 11-27 11-33-4-39-76 34-68-3-10-46-26-68-24-21 3-84 69-96 81-7 9-23 10-33 10-30-8-33-75 37-67-3-10-45-26-67-24-22 3-86 71-96 81-8 9-18 11-26 11h0-3-2 0c-35 0-44-76 31-68-3-10-46-26-67-24-22 3-84 69-96 81-8 9-24 10-34 10-30-8-33-75 37-67-3-10-45-26-67-24-22 3-86 71-96 81-9 10-20 11-29 11-33-3-40-76 33-68-3-10-45-26-67-24-22 3-84 69-96 81-8 9-24 10-34 10-29-8-32-75 38-67-3-10-46-26-68-24-21 3-86 71-95 81-9 9-18 11-27 11h0-2-2 0c-36 0-44-76 31-68-3-10-46-26-68-24-22 3-84 69-96 81-8 9-24 10-33 10-30-8-33-75 37-67-3-10-46-26-67-24-22 3-87 71-96 81-9 9-18 11-27 11-33-4-39-76 34-68-3-10-46-26-68-24-21 3-83 69-95 81-8 9-24 10-34 10-30-8-33-75 37-67-3-10-45-26-67-24-22 3-86 71-96 81-8 9-17 11-26 11h0-3-2 0c-35 0-44-76 31-68-3-10-46-26-67-24-22 3-84 69-96 81-8 9-24 10-34 10-30-8-33-75 38-67-3-10-49-26-68-24-18 3-53 38-77 62z"/><path d="M1775 1725c-12-4-26-6-33-5-16 1-75 62-90 77-9 11-27 13-40 13h-2-1c-36-10-40-70 7-85-13-4-27-6-33-5-17 1-77 63-90 77-9 10-20 13-33 14l-12 1v-1c-37-6-44-71 5-86-13-4-27-6-34-5-16 1-75 62-89 77-10 11-27 13-41 13h-2-1c-36-10-40-70 7-85-13-4-27-6-33-5-17 1-77 63-90 77-9 10-20 14-34 14h0-1c-40-5-47-71 2-86-13-4-27-6-33-5-17 1-76 62-90 77-10 11-27 13-41 13h-1-2c-36-10-40-70 8-85-13-4-27-6-34-5-16 1-76 63-90 77-9 10-20 13-33 14l-11 1v-1c-38-6-45-71 4-86-13-4-27-6-33-5-17 1-76 62-90 77-10 11-27 13-41 13h-1-2c-35-10-39-70 8-85-13-4-27-6-34-5-12 1-49 37-64 52 3 17 7 34 11 51 20 7 26 27 60 30 47 4 49-31 85-32 7-1 14 1 20 4 10 6 18 15 28 20 14 8 33 9 50 8l2-1c18-9 43-30 63-31 30-2 36 28 75 32 47 4 49-31 84-32 36-2 54 44 93 31l2-1h0 1l4-3c15-9 39-27 57-27 30-2 35 28 75 32 47 4 49-31 84-32 8-1 14 1 21 4 10 6 17 15 27 20 15 8 33 9 50 8l2-1c18-9 43-30 63-31 30-2 36 28 76 32 47 4 49-31 84-32 36-2 53 46 95 30l9-4c17-10 38-26 55-26 30-2 36 28 75 32 47 4 49-31 84-32 8-1 15 1 21 4 10 6 17 15 28 20 14 8 33 9 50 8l1-1c18-9 44-30 64-31 30-2 36 28 75 32 47 4 49-31 84-32 36-2 53 44 93 31l2-1h0 1l4-3c8-5 15-10 24-14 2-11 5-22 7-33-8 7-18 10-30 10h-1 0c-40-5-47-71 2-86-13-4-27-6-34-5-16 1-75 62-89 77-10 11-27 13-41 13h-2-1c-36-10-40-70 7-85-12-4-27-6-33-5-16 1-76 63-90 77-9 10-20 13-33 14l-11 1v-1c-38-6-45-71 4-86-13-4-27-6-33-5-17 1-76 62-90 77-10 11-27 13-41 13h-1-2c-36-10-39-70 8-85-13-4-27-6-34-5-16 1-76 63-89 77-11 11-22 14-37 14h0-1c-41-4-48-71 1-86z" fill="#fefefe"/><path d="M516 1157l-1 284v1c-2 70 2 142 10 212h1959c9-70 13-142 13-214v-284c-138-50-283-98-425-134-57-14-117-11-174-1-62 12-123 33-181 58-40 17-78 36-117 54-105 45-224 74-338 59-110-14-225-37-334-60-94-19-194-18-289-4-40 7-84 16-123 29z"/><path d="M516 1174s198-69 409-25c211 43 335 60 335 60-78 19-275 102-199 74 169-61 394-69 545-135 69-30 286-153 462-109 175 43 429 135 429 135v209h-26v-51h-145v51h-58v-51h-145v51h-55v-51h-145v51h-65v-51h-145v51h-57v-51h-145v51h-53v-51h-145v51h-32v-51h-146v51h-51v-51H939v51h-59v-51H734v51h-49v-51H540v51h-34l10-209z" fill="#009b4c"/><path d="M582 1252c55-112 135-228 195-318l12 22c-97 147-213 377-234 450l-40-1c17-29 43-105 67-153z" fill="#5c2d22"/><g fill="#fff000"><use xlink:href="#B"/><use xlink:href="#B" x="80"/><use xlink:href="#B" x="156"/><use xlink:href="#B" x="236"/><use xlink:href="#B" x="312"/><use xlink:href="#B" x="392"/><use xlink:href="#B" x="468"/><use xlink:href="#B" x="548"/><use xlink:href="#B" x="625"/><use xlink:href="#B" x="705"/><use xlink:href="#B" x="781"/><use xlink:href="#B" x="861"/><use xlink:href="#B" x="938"/><use xlink:href="#B" x="1018"/><use xlink:href="#B" x="1094"/><use xlink:href="#B" x="1174"/><use xlink:href="#B" x="1254"/><use xlink:href="#B" x="1334"/><use xlink:href="#B" x="1410"/><use xlink:href="#B" x="1490"/><use xlink:href="#B" x="1567"/><use xlink:href="#B" x="1647"/><use xlink:href="#B" x="1723"/><use xlink:href="#B" x="1803"/><use xlink:href="#B" x="1883"/></g><path d="M1613 2066c18-7 38-11 56-6 24 7 60 53 67 77 7 26 6 61-9 85-11 17-22 38-43 44 14 11 26 23 29 31 8 23 16 51-5 71-19 16-34 37-52 54-20 18-42 39-72 34-14-3-25-13-38-15-10-2-18-8-24-16-2 6-6 10-10 13-10 6-18 15-30 17-3 1-5 2-8 3-27 10-45 3-70-10-28-14-107-68-103-102 3-22 1-56 25-66 3-1 6-2 10-3-1-1-2-2-4-2-14-10-49-25-53-42-7-29 9-82 28-105 19-22 28-36 58-39 10 0 19-2 29-3-2-25 13-61 29-75 26-24 69-47 104-29 19 9 74 42 80 61 2 7 4 15 6 23z"/><path d="M1451 2138s-35-31-41-43 1-55 22-74c21-20 59-42 89-27s70 44 73 53 7 28 7 28c-22 14-45 22-52 56-17-3-36-3-53-2-41 3-62 18-83 42-21 23-26 95-26 106 0 2 1 5 4 9-10-3-33-11-51-23-21-14-45-24-47-33-5-21 5-69 25-93s25-32 49-34c23-2 38-5 38-5l46 40zm-2 65l-4 4c3-9 6-16 9-18 10-7 38-31 63-28 48 6 76 62 60 97-8 16-51 51-51 51l-2-5c6-4 16-8 23-19-9 9-22 14-36 14-20 0-47-9-63-24 4 6 8 10 14 15 5 5 54 15 64 19-9 6-40 2-59-5-38-15-40-75-18-101zm106 11c1 2 2 5 4 8-1-4-3-6-4-8zm-97-20c5-3 12-5 19-7l-2 1c-6 0-12 3-17 6zm91-63c3-3 64-72 116-58 15 4 51 43 57 67 7 24 6 55-6 75-12 19-21 34-37 38-11 4-31-2-42-5-2-25-16-51-28-76s-35-36-60-41zm88 119c18 12 59 40 63 51 5 15 15 42-1 57-17 15-43 45-52 53-9 9-34 36-61 31-12-2-24-12-37-14-23-4-28-41-30-57h8c7 0 58-42 93-76 14-13 18-28 17-45zm-118 121c-1 16-4 49-14 55-9 6-18 14-26 16-17 4-25 17-69-6-43-22-98-70-96-88 3-18 2-49 18-56 13-5 48-5 60-5 9 11 31 27 53 39 29 17 59 44 59 44s8 1 15 1zm-14-12s-27-25-54-40c-27-14-53-35-53-45s5-75 24-96 38-35 75-38c38-3 84 1 103 39 19 39 41 82 10 112-32 30-78 69-85 69-6 1-20-1-20-1z" fill="#e62129"/><g clip-path="url(#A)"><path d="M1320 2210c4 0 8 3 8 8 0 4-4 7-8 7-5 0-8-3-8-7 0-5 3-8 8-8zm107 19c1 2 1 3 1 5 0 4-4 8-8 8 3 1 6 4 6 9 0 4-4 8-8 8-5 0-9-4-9-8a8.96 8.96 0 0 1 9-9c-4-1-7-4-7-8 0-3 1-5 3-7-1-1-1-3-1-4 0-5 4-9 8-9a8.96 8.96 0 0 1 9 9c0 3-1 5-3 6zm-5-36a8.96 8.96 0 0 1 9 9c0 4-4 8-9 8-4 0-8-4-8-8 0-5 4-9 8-9zm28-14c3 1 5 4 5 8 0 5-3 9-8 9-4 0-7-3-8-7-2 3-5 5-8 5a8.96 8.96 0 0 1-9-9c0-5 4-8 9-8 4 0 7 2 8 6 1-1 1-2 2-2-3-1-6-5-6-9s3-8 8-8v-1c0-5 4-9 8-9s7 3 9 7c0-2 1-3 3-4v-2c0-5 3-9 8-9 4 0 7 3 8 6 2-2 5-4 8-4 2 0 5 1 6 3v-1a8.96 8.96 0 0 1 9-9c3 0 5 1 7 4 1-2 4-4 6-4 3 0 5 1 6 3 2 0 3 1 3 2 2-2 4-3 7-3s6 2 8 5h2c3 0 6 1 7 3 2-2 4-3 7-3 4 0 7 2 8 6 2 0 4 2 5 3 2-2 4-3 7-3 5 0 8 4 8 9 0 2 0 3-1 5h2c4 0 8 3 8 8 0 4-2 7-5 8l1 1c1-2 4-3 6-3a8.96 8.96 0 0 1 9 9c0 3-2 7-6 8 3 1 5 4 5 8s-4 8-8 8c-5 0-9-4-9-8s3-7 6-9c-1 0-3-1-3-2-2 2-4 3-7 3a8.96 8.96 0 0 1-9-9c0-3 2-6 6-8-1 0-1 0-1-1-2 2-4 3-7 3-5 0-9-3-9-8 0-2 1-4 2-5h-2c-4 0-7-3-8-6-2-1-4-2-5-3-2 2-4 3-7 3s-6-2-7-5h-3c-3 0-5-1-7-3-2 2-4 3-7 3-2 0-4-1-6-2l-3-3c-1 2-4 3-6 3-3 0-5-1-7-2v1c0 4-3 8-8 8-4 0-7-2-8-6-1 2-2 3-4 3 0 1 1 2 1 3 0 4-4 8-8 9h0c0 5-4 9-8 9s-8-3-9-6c0 1-1 1-1 2zm141 49a8.96 8.96 0 0 1 9 9c0 4-4 8-9 8-4 0-8-4-8-8 0-5 4-9 8-9zm12-13c4 0 8 3 8 8s-4 9-8 9a8.96 8.96 0 0 1-9-9c0-5 4-8 9-8zm12 16a8.96 8.96 0 0 1 9 9c0 4-4 8-9 8-4 0-8-4-8-8 0-5 4-9 8-9zm-28 14c5 0 8 4 8 9s-3 9-8 9a8.96 8.96 0 1 1 0-18zm-212 10c4 0 8 3 8 8 0 4-4 8-8 8-5 0-8-4-8-8 0-5 3-8 8-8zm276 27c1 1 1 3 1 4 0 4-3 8-8 8 0 4-3 8-8 8-4 0-7-4-7-8s3-8 7-8c0-1 1-3 2-4-1-1-2-2-2-4 0-4 4-8 8-8 5 0 8 4 8 8 0 2 0 3-1 4zm-25 18c4 0 7 4 7 8 0 5-3 8-7 8-5 0-8-3-8-8 0-4 3-8 8-8zm-12 12c5 0 8 4 8 8 0 5-3 8-8 8h-1c2 1 3 3 3 6 0 4-4 8-8 8l-1-1c-1 4-3 7-7 7-1 3-4 5-7 5s-5-1-6-3c-1 3-4 6-8 6s-8-4-8-8 4-8 8-8c3 0 5 1 6 3 1-3 4-5 7-5 1-3 4-5 7-5h1c1-4 4-7 8-7h1c-2-2-2-4-2-6 0-4 3-8 7-8zm-47 39c5 0 8 4 8 8s-3 8-8 8c-4 0-8-4-8-8s4-8 8-8zm-16 11c4 0 8 3 8 8 0 4-4 7-8 7-5 0-8-3-8-7 0-5 3-8 8-8zm-14 8c5 0 8 4 8 8 0 3-2 5-4 7 4 0 6 4 6 7v4h1c4 0 8 3 8 8 0 4-4 8-8 8-5 0-8-4-8-8 0-2 0-3 1-4h-2c-4 0-7-3-7-8 0-3 1-5 4-6-4-1-7-4-7-8s4-8 8-8zm27 15c4 0 8 3 8 8 0 4-4 8-8 8-5 0-8-4-8-8 0-5 3-8 8-8zm20 19c4 0 8 4 8 8s-4 8-8 8-8-4-8-8 4-8 8-8zm-2-35c4 0 8 4 8 8s-4 8-8 8c-5 0-8-4-8-8s3-8 8-8zm18 13c4 0 8 3 8 8 0 4-4 8-8 8s-8-4-8-8c0-5 4-8 8-8zm27 8c4 0 8 3 8 8 0 4-4 8-8 8s-8-4-8-8c0-5 4-8 8-8zm2-26c5 0 8 4 8 8s-3 8-8 8c-4 0-7-4-7-8s3-8 7-8zm-26-8c4 0 8 3 8 8 0 4-4 7-8 7s-8-3-8-7c0-5 4-8 8-8zm19-15c4 0 8 3 8 8 0 4-4 8-8 8s-8-4-8-8c0-5 4-8 8-8zm37-1c5 0 8 4 8 8s-3 8-8 8c-4 0-8-4-8-8s4-8 8-8zm-16-23c5 0 8 3 8 8 0 4-3 8-8 8-4 0-8-4-8-8 0-5 4-8 8-8zm25-1c5 0 8 4 8 8s-3 8-8 8c-4 0-8-4-8-8s4-8 8-8zm15 14c4 0 7 4 7 8s-3 8-7 8c-5 0-8-4-8-8s3-8 8-8zm4-23c4 0 8 3 8 8 0 4-4 7-8 7s-8-3-8-7c0-5 4-8 8-8zm-21-16c1 2 2 4 2 6 0 4-3 8-8 8-4 0-7-4-7-8 0-3 1-5 3-6-2-2-3-4-3-6 0-4 4-8 8-8 5 0 8 4 8 8 0 3-1 5-3 6zm-173 89c-1 1-3 1-4 2-4 1-8-2-10-6-4 1-8-1-9-5s1-9 5-10 9 1 10 6c1-1 3-1 4 0l3-3c5-1 9 2 10 6s-1 8-5 10h-4zm-25-20c1 4-1 9-5 10s-9-2-10-6 1-8 5-9c5-2 9 1 10 5zm-14-8c1 5-2 9-6 10s-8-1-10-5v-1c-1 2-2 3-5 4-4 1-8-2-9-6v-1c-4 1-7-1-9-4-3-1-6-3-7-6 0-3 0-5 2-7-4 0-7-2-8-6s2-8 6-9c4-2 8 1 9 5 1 2 1 5-1 7 3 0 6 2 7 4 3 1 6 3 7 6v1c4 0 8 2 9 6v1c1-2 3-3 5-4 4-1 8 1 10 5zm-51-34c2 4-1 8-5 9s-9-1-10-5 1-9 6-10c4-1 8 1 9 6zm-14-13c1 4-1 8-6 9-4 1-8-1-9-5-2-4 1-9 5-10s9 1 10 6zm-12-11c1 4-1 8-5 9-3 1-6 0-8-2 0 4-2 8-6 9h-3v1c1 4-1 8-5 10-4 1-9-2-10-6s1-8 5-10h4v-1c-2-4 1-8 5-10 3 0 6 1 8 3 0-4 2-8 6-9s8 2 9 6zm-7 29c1 5-1 9-5 10-5 1-9-1-10-5-1-5 1-9 5-10s9 1 10 5zm-13 25c1 4-1 9-5 10-5 1-9-1-10-6-1-4 1-8 5-9 5-2 9 1 10 5zm33-12c1 5-1 9-5 10-5 1-9-1-10-5s1-9 5-10 9 1 10 5zm-7 22c1 4-2 8-6 9s-8-1-9-5c-2-4 1-9 5-10s9 1 10 6zm-1 28c2 4-1 8-5 9-4 2-9-1-10-5s2-9 6-10 8 1 9 6zm26-5c1 4-1 8-6 10-4 1-8-2-9-6s1-8 5-10c4-1 9 2 10 6zm1-28c1 5-2 9-6 10s-8-1-9-5c-2-5 1-9 5-10s9 1 10 5zm19 14c1 5-1 9-5 10s-9-1-10-5c-1-5 1-9 6-10 4-1 8 1 9 5zm11 36c1 4-1 9-5 10-5 1-9-1-10-6-1-4 1-8 5-9 5-1 9 1 10 5zm18-22c1 5-1 9-5 10-5 1-9-1-10-5-1-5 1-9 5-10 5-1 9 1 10 5zm8 24c1 5-2 9-6 10s-8-1-10-5c-1-5 2-9 6-10s8 1 10 5zm-10 18c1 4-2 8-6 10-4 1-8-2-9-6-2-4 1-8 5-10 4-1 9 2 10 6zm24-2c1 4-2 8-6 10-4 1-8-2-9-6-2-4 1-8 5-10 4-1 9 2 10 6zm9-25c-1 2-3 4-5 4-4 1-9-1-10-5s2-9 6-10c2-1 5 0 7 1 1-1 2-3 4-3 5-2 9 1 10 5s-1 9-5 10c-3 0-5 0-7-2zm-69-133c4 0 8 4 8 9 0 2-1 5-2 6h1a8.96 8.96 0 0 1 9 9c0 4-4 8-9 8s-8-4-8-8c0-3 1-5 2-7h-1c-5 0-9-3-9-8a8.96 8.96 0 0 1 9-9zm23 27a8.96 8.96 0 0 1 9 9c0 4-4 8-9 8-4 0-8-4-8-8 0-5 4-9 8-9zm29 17a8.96 8.96 0 1 1 0 18 8.96 8.96 0 1 1 0-18zm25 15a8.96 8.96 0 1 1 0 18c-5 0-8-4-8-9s3-9 8-9zm20 0a8.96 8.96 0 0 1 9 9c0 5-4 9-8 9 4 0 8 4 8 8a8.96 8.96 0 0 1-9 9c-4 0-8-4-8-9 0-4 4-8 8-8-4 0-8-4-8-9s4-9 8-9zm20 1a8.96 8.96 0 0 1 9 9c0 5-4 8-9 8s-9-3-9-8a8.96 8.96 0 0 1 9-9zm7-21c4 0 8 4 8 9s-4 8-8 8c-5 0-9-3-9-8a8.96 8.96 0 0 1 9-9zm28 6a8.96 8.96 0 0 1 9 9c0 5-4 8-9 8s-9-3-9-8a8.96 8.96 0 0 1 9-9zm0-22c5 0 9 3 9 8 0-5 4-8 8-8 5 0 9 4 9 8a8.96 8.96 0 0 1-9 9c-4 0-8-4-8-8 0 4-4 8-9 8a8.96 8.96 0 0 1-9-9c0-4 4-8 9-8zm36-30c5 0 9 4 9 8a8.96 8.96 0 1 1-18 0c0-4 4-8 9-8zm16-116c4 0 8 4 8 8s-4 8-8 8-8-4-8-8 4-8 8-8zm-12 12c4 0 8 3 8 8 0 4-4 7-8 7s-8-3-8-7c0-5 4-8 8-8zm12 9c5 0 8 4 8 8 0 5-3 8-8 8-4 0-8-3-8-8 0-4 4-8 8-8zm6 18c5 0 8 4 8 8 0 5-3 8-8 8-4 0-8-3-8-8 0-4 4-8 8-8zm19-5c5 0 8 3 8 8 0 4-3 7-8 7-4 0-7-3-7-7 0-5 3-8 7-8zm24-40c4 0 8 3 8 8 0 4-4 7-8 7-5 0-8-3-8-7 0-5 3-8 8-8zm-12-16c5 0 8 3 8 7 0 5-3 8-8 8-4 0-7-3-7-8 0-4 3-7 7-7zm-16 11c4 0 7 3 7 8 0 4-3 8-7 8-5 0-8-4-8-8 0-5 3-8 8-8zm-1 16c5 0 8 4 8 8 0 5-3 8-8 8-4 0-8-3-8-8 0-4 4-8 8-8zm19 9c4 0 8 3 8 7 0 5-4 8-8 8s-8-3-8-8c0-4 4-7 8-7zm23 4c4 0 8 3 8 8 0 4-4 7-8 7s-8-3-8-7c0-5 4-8 8-8zm-11 11c4 0 8 4 8 8s-4 8-8 8-8-4-8-8 4-8 8-8zm-16 22c5 0 8 4 8 8 0 5-3 8-8 8-4 0-8-3-8-8 0-4 4-8 8-8zm-22 8c5 0 8 3 8 8 0 4-3 8-8 8-4 0-7-4-7-8 0-5 3-8 7-8zm23 22c5 0 8 3 8 8 0 4-3 8-8 8-4 0-8-4-8-8 0-5 4-8 8-8zm26-19c4 0 8 3 8 8 0 4-4 8-8 8-5 0-8-4-8-8 0-5 3-8 8-8zm12-32c4 0 8 4 8 8s-4 8-8 8c-5 0-8-4-8-8s3-8 8-8zm-3-32c4 0 8 3 8 8 0 4-4 8-8 8-5 0-8-4-8-8 0-5 3-8 8-8zm-1-20c5 0 8 3 8 8 0 4-3 8-8 8-4 0-8-4-8-8 0-5 4-8 8-8zm-15-16c4 0 8 4 8 8s-4 8-8 8-8-4-8-8 4-8 8-8zm-29-22c4 0 8 4 8 8s-4 8-8 8-8-4-8-8 4-8 8-8zm-26 23c2 1 4 4 4 6 0 1 0 2-1 2 2-1 4-2 6-2h4 0c0-2 0-4 1-5-1 1-3 1-4 1-4 0-6-2-8-4l-2 2zm2 12c-2 1-4 2-6 2-1 0-3 0-4-1v1c0 5-3 8-7 8h-1 0c0 5-4 8-8 8-3 0-5-1-6-3h0c0 5-4 8-8 8-5 0-8-3-8-8h0c-2-1-4-4-4-6 0-3 1-4 2-6v-2c0-4 3-8 8-8 1 0 1 0 2 1 0-4 4-8 8-8 1 0 1 0 2 1 0-5 4-8 8-8s8 4 8 8-4 8-8 8c-1 0-1 0-2-1 0 5-4 8-8 8h-2c0 2-1 3-2 5v2h0c1 0 1 1 2 2v-1c0-4 4-7 8-7h1v-1c0-4 3-8 8-8 1 0 2 1 3 1v-1c0-3 2-5 4-6-2-2-4-4-4-7 0-4 4-8 8-8 3 0 6 2 7 5 2-2 4-3 7-3 4 0 8 3 8 7 0 2-1 4-2 5 1-1 3-1 5-1 4 0 7 3 7 8 0 4-3 7-7 7h-4 0c0 5-3 8-8 8h0v2c0 5-3 8-8 8-1 0-2 0-3-1 0 5-3 8-7 8-5 0-8-3-8-8 0-4 3-8 8-8 1 0 2 1 3 1 0-4 3-8 7-8h1c-1 0-1-1-1-2 0 0 0-1 1-1zm-26 18c4 0 8 4 8 8 0 5-4 8-8 8s-8-3-8-8c0-4 4-8 8-8zm-91-34c4 0 7 4 7 8 0 2 0 3-1 4l1 1c1-3 3-5 6-5-1-2-2-3-2-6 0-4 4-7 8-7s8 3 8 7c0 5-3 8-7 8 1 2 2 4 2 6 0 4-4 7-8 7-3 0-6-2-7-4-1 3-4 5-7 5-5 0-8-4-8-8 0-1 0-3 1-4-1-1-1-2-1-4v-1c-4 0-8-4-8-8 0-1 1-3 1-4-4 0-8-3-8-7 0-5 4-8 8-8 5 0 8 3 8 8 0 1 0 2-1 3 4 0 8 4 8 8v1zm-38-12c4 0 8 3 8 7v1c3 1 6 4 6 8s-3 7-7 8c2 1 3 2 4 4 1-4 4-7 8-7s8 4 8 8-4 8-8 8c-3 0-6-2-7-5-1 4-4 7-8 7-5 0-8-4-8-8s3-7 7-8c-3-1-5-4-5-7v-1c-2-1-4-2-5-4h0c0 5-4 8-8 8s-8-3-8-8c0-4 4-7 8-7 3 0 6 2 7 4v-1c0-1 1-2 1-3-4 0-8-4-8-8 0-5 4-8 8-8 5 0 8 3 8 8 0 1 0 2-1 4zm73-31c1 1 1 2 1 4 0 4-3 8-8 8-4 0-8-4-8-8 0-2 1-3 2-4-1-1-2-3-2-4 0-4 4-8 8-8 5 0 8 4 8 8 0 1 0 3-1 4zm-33 4c4 0 8 4 8 8 0 3-2 6-5 7 0 5-4 8-8 8s-8-3-8-8c0-3 2-6 5-7 0-4 4-8 8-8zm11 17c5 0 8 4 8 8s-3 8-8 8c-4 0-7-4-7-8s3-8 7-8zm22 30c5 0 8 4 8 8s-3 8-8 8c-4 0-7-4-7-8s3-8 7-8zm-83 16c4 0 7 3 7 8 0 4-3 8-7 8-5 0-8-4-8-8 0-5 3-8 8-8zm-3-16c5 0 8 4 8 8s-3 8-8 8c-4 0-8-4-8-8s4-8 8-8zm-11-38c4 0 8 3 8 7 0 5-4 8-8 8s-8-3-8-8c0-1 0-2 1-3-1 1-3 2-5 2-4 0-7-4-7-8s2-6 4-8c1-4 4-7 8-7 5 0 8 3 8 8 0 3-2 6-5 7v3c1-1 2-1 4-1zm-15 10c4 0 8 4 8 8 0 5-4 8-8 8s-8-3-8-8c0-4 4-8 8-8zm24-32c5 0 8 3 8 8 0 4-3 8-8 8-4 0-7-4-7-8 0-5 3-8 7-8zm24 10c5 0 8 3 8 8 0 4-3 8-8 8-4 0-7-4-7-8 0-5 3-8 7-8zm13-10c4 0 8 3 8 8 0 4-4 8-8 8-5 0-8-4-8-8-4 0-8-4-8-8 0-5 4-8 8-8s8 3 8 8zm27-1c4 0 8 3 8 8 0 4-4 7-8 7s-8-3-8-7c0-5 4-8 8-8zm40 39c4 0 8 3 8 8 0 4-4 7-8 7-5 0-8-3-8-7 0-5 3-8 8-8zm-23-17c5 0 8 4 8 8s-3 8-8 8c-4 0-8-4-8-8s4-8 8-8zm39-10c4 0 7 4 7 8 0 5-3 8-7 8-5 0-8-3-8-8 0-4 3-8 8-8zm-15-18c4 0 7 3 7 8 0 4-3 7-7 7-5 0-8-3-8-7 0-5 3-8 8-8zm-38-10c4 0 8 3 8 8 0 4-4 8-8 8-5 0-8-4-8-8 0-5 3-8 8-8zm-4-17c5 0 8 4 8 8 0 5-3 8-8 8-4 0-8-3-8-8 0-4 4-8 8-8zm-30 10c4 0 7 4 7 8s-3 8-7 8c-5 0-8-4-8-8s3-8 8-8zm-27 7c5 0 8 3 8 8 0 4-3 8-8 8-4 0-7-4-7-8 0-5 3-8 7-8zm3-18c5 0 8 4 8 8s-3 8-8 8c-4 0-7-4-7-8s3-8 7-8zm-43 130c5 0 8 3 8 8 0 4-3 8-8 8 0 0-1 0-2-1 1 1 1 3 1 4 0 4-3 8-8 8-4 0-8-4-8-8 0-1 1-2 1-3h0c-2 0-4 0-5-1v1c0 5-3 8-8 8-4 0-7-3-7-8 0-4 3-7 7-7 2 0 4 0 5 1v-1c0-5 4-8 8-8s8 3 8 8c0 0 0 1-1 2h0 2c0-1-1-2-1-3 0-2 1-3 2-5h-1c-4 0-8-3-8-8 0-4 4-7 8-7 5 0 8 3 8 7 0 2 0 4-1 5h0zm-20 25c4 0 8 3 8 8 0 4-4 7-8 7s-8-3-8-7c0-5 4-8 8-8zm-10 21c4 0 7 4 7 8 0 5-3 8-7 8-5 0-8-3-8-8 0-4 3-8 8-8zm-14 44c4 0 7 3 7 8 0 4-3 8-7 8-5 0-8-4-8-8 0-5 3-8 8-8zm-21 6c5 0 8 3 8 8 0 4-3 8-8 8-4 0-8-4-8-8 0-5 4-8 8-8zm13-22c1 0 3 1 4 2 0-4 4-8 8-8 5 0 8 4 8 8s-3 8-8 8c-2 0-3-1-5-2 0 4-3 8-7 8-5 0-8-4-8-8s3-8 8-8zm-2-22c5 0 8 3 8 7 0 5-3 8-8 8-4 0-7-3-7-8 0-4 3-7 7-7zm16-21c5 0 8 4 8 8s-3 8-8 8c-4 0-7-4-7-8s3-8 7-8zm14-53c4 0 7 3 7 8 0 4-3 8-7 8-5 0-8-4-8-8 0-5 3-8 8-8zm-14 14c5 0 8 4 8 8s-3 8-8 8c-4 0-7-4-7-8s3-8 7-8zm-7-19c4 0 8 3 8 8 0 4-4 8-8 8s-8-4-8-8c0-5 4-8 8-8zm-7 42c5 0 8 3 8 7 0 5-3 8-8 8-4 0-8-3-8-8 0-4 4-7 8-7zm-14-9c4 0 8 4 8 8s-4 8-8 8-8-4-8-8 4-8 8-8zm-1 25c4 0 7 4 7 8s-3 8-7 8c-5 0-8-4-8-8s3-8 8-8zm-4 24c4 0 8 4 8 8s-4 8-8 8c-5 0-8-4-8-8s3-8 8-8zm-11-19c4 0 7 4 7 8s-3 8-7 8c-5 0-8-4-8-8s3-8 8-8zm0 68c5 0 8 4 8 8 0 5-3 8-8 8-4 0-8-3-8-8 0-4 4-8 8-8zm-1-25c4 0 8 4 8 8 0 5-4 8-8 8-5 0-8-3-8-8 0-4 3-8 8-8z" fill="#fefefe"/></g><path d="M1496 2259c4 0 7 4 7 8s-3 7-7 7-7-3-7-7 3-8 7-8zm23 52c-20 1-41-6-57-21-17-14-28-39-25-56s18-42 41-45c11-2 28 1 43 5-3 1-5 4-5 7s1 5 3 6v3c0 4 3 7 7 7s7-3 7-7c0-3-1-5-3-6 0-1 1-2 1-3s-4-5-5-6c39 14 40 51 25 81-8 14-16 30-32 35zm-42-121c4 0 7 4 7 8s-3 7-7 7-7-3-7-7 3-8 7-8zm21 2c4 0 7 4 7 8 0 2-1 4-2 5v2c0 4-3 7-7 7-2 0-4-1-6-2 1 0 1 1 1 1 0 2-1 4-3 6 1-1 2-1 3-1 4 0 8 3 8 7v1c1-2 3-2 5-2 4 0 7 3 7 7s-3 7-7 7-8-3-8-7h0c-1 1-3 2-5 2-4 0-7-4-7-8 0-2 1-4 2-5-1 1-2 1-3 1-4 0-7-4-7-8s3-7 7-7c2 0 4 1 6 2l-1-1c0-3 1-4 3-6v-1c0-4 3-8 7-8zm16 21c4 0 8 3 8 8 0 4-4 7-8 7s-7-3-7-7c0-5 3-8 7-8zm23 2c4 0 8 4 8 8s-4 7-8 7-7-3-7-7 3-8 7-8zm9 21c4 0 8 3 8 7s-4 8-8 8-7-4-7-8 3-7 7-7zm-20-8c4 0 8 3 8 7s-4 7-8 7-7-3-7-7 3-7 7-7zm-59-16c4 0 7 3 7 7s-3 7-7 7-7-3-7-7c0-3 1-5 3-6-4 0-7-4-7-7 0-5 4-8 8-8s7 3 7 8c0 2-2 4-4 6zm-17 4c4 0 7 3 7 7s-3 7-7 7-7-3-7-7 3-7 7-7zm-1 30c4 0 7 3 7 7s-3 7-7 7-7-3-7-7 3-7 7-7zm8-17c4 0 7 4 7 8s-3 7-7 7-7-3-7-7 3-8 7-8zm25 4c4 0 8 3 8 7s-4 7-8 7-7-3-7-7 3-7 7-7zm53 18c4 0 7 4 7 8s-3 7-7 7-7-3-7-7 3-8 7-8zm-25-8c4 0 8 3 8 7 0 5-4 8-8 8s-7-3-7-8c0-4 3-7 7-7z" fill="#f08519"/><path d="M1466 1223c-1-22-1-39-1-59-11-8-28-22-31-31-3-11-4-29 12-30 7-1 29 11 34 8 17-9 16-20 14-39-3-25-16-87-28-107-10-16-20-32-29-48l-5-8 7-6c40-36 18-59 43-97 6-8 16-19 25-24l18-8-1 19c0 20-1 55 4 74 4 17 15 24 20 37 2 6 4 14 4 21 4 5 9 7 10 16 0 4-1 10-2 16 3 3 5 8 5 12 0 5 0 10-1 15 3 5 4 12 4 18-1 7-5 14-9 20 1 22 2 53 0 73-3 17-17 38-28 50-3 4-6 7-10 10l2 23c3 17 8 34 12 51l3 25c1 22 2 46 5 68 3 24-18 66-38 79-20 12-40-9-54-14-4 0-7-1-10-4-11-12 14-37 20-47 5-6 11-16 14-23 4-10 0-33-4-50l-5-15v-9-16z"/><path d="M1478 1246l-2-60c6-8 26-14 35-5v-2c3 17 15 60 15 60-18-4-36 1-48 7zm33-73h0z" fill="#e62129"/><path d="M1478 1246s15 50 8 71c-8 21-43 59-35 59 7 0 36 23 48 15s36-44 33-67c-3-24-6-85-6-85-18-4-36 1-48 7z"/><path d="M1476 1187c0 2 1-29 1-29s-30-22-32-28c-1-7-3-15 2-16 4 0 27 13 39 7 12-7 24-13 19-50-4-37-18-94-30-112-11-18-28-48-28-48 45-39 21-63 45-98 10-15 21-20 21-20s-1 57 4 76c5 20 18 33 20 39 3 6 4 15 3 20 0 4 10 8 10 14 1 5-2 19-2 19s5 3 5 9c1 6-2 17-2 17s6 5 5 14c-1 8-9 17-9 17s2 60 0 75c-2 16-19 38-25 45s-13 11-13 11l2 32c-9-10-30-2-35 6zm50-275c4 0 7 3 7 7 0 3-3 6-7 6-3 0-6-3-6-6 0-4 3-7 6-7zm7 25c3 0 6 3 6 7 0 3-3 6-6 6-4 0-7-3-7-6 0-4 3-7 7-7zm4 28c3 0 6 3 6 6 0 4-3 7-6 7-4 0-7-3-7-7 0-3 3-6 7-6zm2 29c3 0 6 3 6 7 0 3-3 6-6 6-4 0-7-3-7-6 0-4 3-7 7-7zm-69 379s23 10 30-5c9-17 17-62 11-79-4-9-13-9-13-9-5 41-2 58-34 84l6 9z" fill="#fff000"/><path d="M1531 620h89l-72 52 28 85-73-52-72 52 28-85-73-52h90l27-85z" fill="#332c2b"/><path d="M1503 562l22 66h69l-56 41 21 66-56-41-56 41 22-66-56-41h69z" fill="#fff000"/><path d="M751 1349h112v51h93v-51h111v51h85v-51h112v51h66v-51h111v51h87v-51h111v51h91v-51h111v51h99v-51h111v51h89v-51h111v51h92v-51h111v51h43v106H515v-106h42v-51h111v51h83z" fill="#e62129"/><path d="M822 870c6 0 23-3 42-5 18-2 38-2 59 2s43 11 58 22c14 12 20 26 23 32 3 7 2 7-27 0l-117-24c-31-6-36-7-35-5 2 2 10 7 24 14 15 8 36 18 55 30s35 26 45 40c9 14 12 29 13 40 1 12 1 20 0 22-1 3-3-1-25-20l-86-74-29-26c-1 0 3 5 17 21 14 17 40 45 54 67 15 21 19 35 21 46s2 19 1 23c0 4-2 4-14-3-12-6-35-19-51-41-15-22-24-54-32-73-7-19-13-26-16-26-4 1-6 9-4 24 1 15 6 36 8 58s1 46-1 63c-3 16-7 25-10 29s-3 2-9-9c-5-10-17-30-23-53-6-24-7-53-7-72s1-29 2-33c0-5-1-3-6 9-4 12-12 35-16 52-3 18-2 30-4 44s-7 30-12 40c-6 10-11 14-15 11-3-2-4-11-5-24-1-12-3-28-3-38-1-11 1-16-2-11-2 4-8 18-13 26-6 8-10 11-13 11-2 0-3-3 1-18s12-41 26-65c15-25 34-47 43-58 10-11 9-11 1-3s-23 23-39 41c-15 17-30 36-39 57-10 21-14 45-17 50-4 6-6-7-7-23 0-16 2-37 8-53 6-15 17-27 21-33s2-8-6-5c-7 3-21 9-34 20-12 11-24 26-25 22s8-27 21-43 31-25 43-31c12-5 18-7 17-10-2-2-12-4-34 2-21 7-54 22-73 33-20 12-27 20-27 12 0-7 7-29 25-45 18-17 47-29 75-34 29-4 57-2 71-3 13-1 13-4-2-14s-43-26-61-33c-17-7-24-6-18-10 6-5 24-15 47-11 24 4 53 23 69 34s19 13 20 7 0-20 11-37c11-16 35-35 53-43 17-7 28-3 33-1 4 2 2 2-5 6-7 3-19 10-30 24s-19 34-20 42c-1 7 6 2 19-4 13-7 31-15 49-16 18-2 35 2 45 6 11 4 15 6 17 8s2 2-8 4c-11 2-32 4-53 9-21 6-43 14-55 19-13 6-16 8-9 8z" fill="#014720"/><path d="M869 510V390h18v53l35-53h24l-33 47 34 73h-22l-24-56-14 20v36h-18zm166 0h-19l-8-27h-35l-7 27h-18l33-120h19l35 120zm-33-48l-12-44-11 44h23zm42-72h35c7 0 12 0 15 1s6 2 9 5c3 2 5 6 7 10 1 4 2 9 2 14 0 6-1 11-3 16-2 4-5 8-9 10 5 2 10 6 12 11a34.53 34.53 0 0 1 5 18c0 6-1 11-3 16s-4 10-8 13c-3 3-7 5-11 5-3 1-10 1-22 1h-29V390zm17 20v28h12c7 0 11-1 13-1 3 0 5-2 7-4 1-3 2-6 2-10 0-3 0-6-2-9-1-2-4-3-7-4h-14-11zm0 48v32h17c6 0 10 0 12-1 2 0 4-2 6-5 2-2 3-6 3-10s-1-7-2-9c-2-3-3-5-6-6-2-1-7-1-15-1h-15zm70 52v-23h17v23h-17zm68 0V390h28c10 0 17 0 21 2 5 1 9 5 12 11s5 14 5 24c0 7-1 13-3 19-2 5-4 9-7 11-3 3-6 5-9 6-4 1-10 2-18 2h-12v45h-17zm17-100v34h10c7 0 11 0 14-1 2-2 4-4 5-6 1-3 2-6 2-10s-1-8-3-11-4-4-7-5c-2-1-6-1-12-1h-9zm142 100h-19l-8-27h-34l-8 27h-18l33-120h19l35 120zm-32-48l-12-44-12 44h24zm41 48V390h17l36 81v-81h16v120h-18l-35-79v79h-16zm128-44v-20h38v48c-4 5-9 9-16 13s-14 5-21 5c-10 0-17-2-24-7-7-6-12-13-15-23-4-10-5-21-5-32 0-13 1-24 5-34s10-17 17-22c5-4 12-6 21-6 10 0 19 3 25 9s10 15 12 26l-18 5c-1-6-3-11-7-14-3-4-7-6-12-6-8 0-14 4-19 11-4 6-6 16-6 30s2 25 6 32c5 7 11 11 18 11 4 0 8-1 11-3 4-2 7-5 10-8v-15h-20zm132 44h-19l-7-27h-35l-7 27h-19l34-120h18l35 120zm-32-48l-12-44-12 44h24zm41 48V390h17l36 81v-81h16v120h-17l-35-79v79h-17zm88-120h32c7 0 12 0 16 2 5 2 10 6 13 11 4 5 7 12 9 20a202.82 202.82 0 0 1 2 28c0 10 0 19-2 26-2 9-5 16-10 21-3 4-7 7-12 10-4 1-9 2-15 2h-33V390zm17 20v80h13c5 0 9 0 11-1 3-1 5-3 7-5 2-3 3-6 5-12 1-5 1-13 1-22s0-16-1-21c-2-5-3-9-5-12s-5-5-8-6c-3 0-8-1-15-1h-8zm149 100h-19l-8-27h-35l-7 27h-18l33-120h19l35 120zm-33-48l-12-44-11 44h23zm42 48V390h37c9 0 16 1 20 3s8 6 10 12c3 5 4 11 4 19 0 9-2 16-6 22s-9 10-17 11c4 3 7 7 9 10 3 4 6 10 10 20l11 23h-21l-13-26c-4-9-7-15-9-18-2-2-3-4-5-5s-5-1-9-1h-4v50h-17zm17-69h13c9 0 14-1 16-2s4-2 5-5c1-2 2-5 2-9s-1-7-3-10c-1-2-3-4-6-4-2-1-6-1-13-1h-14v31zm149 69h-19l-8-27h-35l-7 27h-18l33-120h19l35 120zm-33-48l-12-44-11 44h23zm42 48V390h17l36 81v-81h16v120h-18l-35-79v79h-16z" fill="#fefefe"/><g fill="#e62129"><path d="M2392 2266c17-29 36-58 54-85 36-51 56-69 117-95l68-28-49 55c-31 35-69 110-60 161l151-2c-14 10-28 21-42 31-25 19-48 71-60 100-12 30-23 61-34 92-4 11-19 57-31 60l-84-30c-595 496-1245 501-1847 7l-72 27c-24 2-35-39-40-56l-34-92c-12-29-35-80-60-100-14-10-28-20-42-31l151 2c9-50-29-126-60-160-16-19-33-37-49-56l68 29c61 25 81 43 117 95 18 25 36 54 52 82l23-53c6 5 12 11 18 17 554 535 1152 533 1702-6 2-1 4-3 5-4h20l18 40z"/><path d="M2391 2304c16-32 45-78 69-113 28-40 44-61 109-89-52 59-76 145-60 189l112-1c-65 48-111 263-120 240-12-2-19-50-33-58 14 16 20 41 31 62l-74-26 43-36c-4-2-9-1-14 4h0c3-3 7-6 10-9l-73-163zM529 2479l-25 51c10-24 10-70 38-49 628 545 1306 532 1921-14l-75-168-25-56h-2c-553 541-1162 551-1726 5l-27 63c-16-32-44-77-68-112-28-40-44-61-109-89 52 59 76 145 60 190l-112-2c65 49 111 264 120 240 1-1 2-2 2-3v7l71-27-43-36zm8-2l35-83-36 82 1 1z"/></g><g fill="#fff000"><path d="M2361 2243h2l25 56 75 168c-617 547-1297 559-1926 10l98-229c564 546 1173 536 1726-5z"/><path d="M2391 2304c16-32 45-78 69-113 28-40 44-61 109-89-52 59-76 145-60 189l112-1c-65 48-111 263-120 240-15-2-22-81-47-54h0c3-3 7-6 10-9l-73-163zm-1782 8c-16-32-45-78-69-113-28-40-44-61-109-89 52 59 76 145 60 190l-112-2c65 49 111 264 120 240 16-18 11-87 47-53h0c-3-3-7-6-10-9l73-164z"/></g><path d="M2387 2302c8-16 19-35 31-55s25-41 38-59h0c14-20 25-36 41-50s37-27 70-41c3-1 6 1 7 3s0 4-1 6c-25 28-43 62-54 95-10 33-13 64-6 85l108-1c3 0 5 2 5 5 0 1-1 3-2 4h0c-39 29-72 124-94 185-11 32-19 55-25 57h0c-3 1-6 1-8-2-7-4-12-16-16-29-5-11-9-23-14-28-2-1-4-1-6 0l-3 3h0c-2 2-5 2-7 0-1 0-1-1-2-1v-1c-1-2 0-4 2-6h0c2-1 3-3 5-4l2-2-71-160c-1-1-1-3 0-4zm39-50c-11 19-21 37-29 52l72 161v2c2 0 3 2 5 3 7 6 11 19 16 31 4 12 9 23 12 24h0c4-6 10-25 19-49 20-57 50-143 86-181l-97 1c-3 1-5-1-6-3-8-24-6-58 5-95 9-28 24-57 43-83-21 11-36 20-48 31-15 13-26 28-40 48h0 0l-38 58zm-1824 59c-8-15-17-32-28-50-13-21-26-41-38-59h0 0c-14-20-25-35-40-48-12-11-27-20-48-30 19 25 34 54 43 82 11 37 13 72 5 95-1 2-3 4-6 4l-97-2c36 38 66 124 86 181 8 23 15 42 18 48 3-5 6-15 8-24 3-13 6-25 13-32 4-4 8-6 14-5l70-160zm-20-56c12 20 23 39 31 55 0 0 0 1-1 3l-70 161 3 3h0l4 4c2 1 3 3 2 6h0 0c-1 0-1 1-1 1-2 2-5 2-8 0-9-8-14-8-17-5-4 5-7 16-10 27-3 12-6 24-11 31-2 4-5 5-9 4h0c-6-3-14-26-25-58-22-61-55-155-94-185h0c-1-1-2-2-2-4 0-3 2-5 5-5l108 1c7-21 4-52-6-85-11-33-29-67-54-95-1-1-2-4-1-6s4-3 7-2c33 14 54 26 70 40s27 30 41 50h0c13 18 26 39 38 59zm111 146l15 12-37 46c-5 6-9 10-13 13-5 3-10 4-16 4-6-1-12-3-18-8-7-6-11-13-12-20s2-15 8-22l16 9c-3 5-5 8-6 11 0 3 1 7 4 9 4 3 7 4 10 3s6-4 11-10l38-47zm40 149l-17-12 6-22-30-23-19 12-16-12 85-53 17 12-26 98zm-6-51l10-36-31 21 21 15zm24 64l23-33 2-64 18 12-2 44 39-19 18 13-60 25-22 33-16-11zm114 74l-17-11 4-22-32-20-18 14-17-11 81-60 17 10-18 100zm-10-50l8-37-30 23 22 14zm46 71l44-84 17 9-20 37 54-19 22 11-48 17 7 68-22-11-3-52-21 7-13 26-17-9zm162 78l-18-8 1-23-34-16-16 16-19-8 73-71 18 9-5 101zm-16-48l3-38-26 27 23 11zm26 51l31-89 38 13c9 3 16 7 20 10 3 3 6 7 7 12s1 10-1 15c-2 7-6 12-12 15-5 3-12 4-20 2 3 4 6 7 7 11 2 3 3 9 5 18l5 21-21-8-7-24c-2-8-3-13-5-16-1-2-2-4-4-5-1-2-4-3-8-5l-4-1-13 37-18-6zm36-45l13 5c9 3 14 4 17 4 2 0 4-1 6-2s3-3 4-6 1-6 0-8-3-4-5-6c-2-1-6-2-13-5l-14-5-8 23zm58 45l18 3c-1 6 0 11 3 15 2 4 6 7 12 8 6 2 10 2 14 0 4-1 6-4 7-7 1-2 1-4 0-6s-3-4-6-6c-2-1-6-4-13-8-9-5-15-10-18-15-4-7-5-14-3-21 1-4 4-8 8-12 4-3 8-5 14-5 5-1 11 0 18 2 12 3 20 8 24 15 4 6 5 14 3 22l-19-4c1-5 0-9-2-12s-5-5-10-6c-6-2-10-2-14-1-2 1-3 3-4 5s0 4 1 6c2 3 7 7 15 11 8 5 14 9 18 13 3 3 6 7 7 12 1 4 1 9-1 15-1 5-4 10-8 14-4 3-9 5-15 6s-13 0-21-2c-11-4-19-9-24-16s-6-16-4-26zm164 69l-20-3-4-23-37-7-12 20-20-4 53-86 20 4 20 99zm-27-43l-7-36-19 32 26 4zm68 49l7-94 29 2 12 65 21-63 29 3-7 94-18-2 6-74-24 73-19-1-13-76-5 74-18-1zm195 4l-21 1-9-21-37 1-7 22h-21l34-95 20-1 41 93zm-36-36l-15-34-11 35 26-1zm46 35l-8-94 19-1 4 41 34-45 26-2-33 40 43 54-25 2-29-42-14 17 2 28-19 2zm178-27l-21 4-12-19-37 7-3 23-20 4 18-100 19-4 56 85zm-42-30l-19-31-6 36 25-5zm51 27l-23-91 39-10c10-3 17-4 22-3 5 0 9 2 13 6s6 8 7 13c2 7 2 13-1 19-3 5-8 10-16 13 4 1 8 3 12 5 3 2 8 6 14 12l15 15-22 6-18-17c-6-6-11-9-13-11-2-1-4-2-6-2-3 0-6 0-10 1l-4 1 10 38-19 5zm6-57l13-4c9-2 14-4 16-5s4-3 5-5v-8c-1-3-2-5-5-6-2-2-4-3-7-2-2 0-6 1-14 3l-14 3 6 24zm104 24l-13-37-51-39 21-8 33 27 8-42 21-8-14 64 13 37-18 6zm127-50l-19 8-16-17-35 15 1 23-19 7-2-101 18-7 72 72zm-47-21l-26-27 2 37 24-10zm84 2l-44-83 27-15c10-5 17-8 20-9 6-1 11-1 17 2 5 2 9 7 13 13 3 6 4 10 4 15 0 4-1 8-3 12-2 3-4 6-6 8-4 3-9 7-17 11l-11 6 17 31-17 9zm-20-78l13 23 9-4c6-4 10-7 12-9s3-4 3-7c1-2 0-5-1-7-2-3-4-5-7-6s-6-1-9 0c-2 0-6 2-12 6l-8 4zm97 36l-48-81 35-21c8-5 15-8 20-9 5 0 9 0 14 3 4 2 8 6 11 10 4 6 5 13 3 19-1 6-5 11-11 16 5 0 9 1 13 2 3 1 9 4 17 8l19 10-20 11-22-10c-8-4-13-6-16-7-2-1-4-1-7-1-2 1-5 2-8 4l-4 2 20 34-16 10zm-11-57l12-7c8-4 12-8 14-9 2-2 2-4 3-7 0-2-1-4-2-7-2-2-4-4-6-5-3-1-6-1-8 0s-6 3-13 7l-12 8 12 20zm161-41l-16 11-19-13-31 22 6 22-17 12-24-98 16-12 85 56zm-50-11l-30-21 9 36 21-15zm28-91l15-12 37 48c4 6 7 11 9 15 2 6 2 12 0 17-2 6-6 11-12 16-8 5-15 8-22 6-7-1-14-5-20-13l13-13c4 4 6 7 9 8 4 1 7 1 10-2 4-2 5-5 5-8s-2-8-7-14l-37-48zm154-3l-16 13-20-11-29 24 8 21-16 13-32-96 16-13 89 49zm-51-7l-32-18 12 35 20-17z" fill-rule="nonzero"/><g fill="#1d1819"><path d="M2468 2472c15 14 21 42 32 65l-75-29 43-36z"/><path d="M2471 2468c11 11 18 27 25 45 2 7 5 14 9 21 1 3 0 6-3 7-1 1-3 1-4 0h0l-75-28c-2-1-4-4-3-7 1-1 1-2 2-2l43-36c2-2 5-2 6 0zm15 48c-5-14-11-28-19-37l-32 27 56 21c-2-3-3-7-5-11z" fill-rule="nonzero"/><path d="M529 2479c-11-6-23 40-31 62l74-26-43-36z"/><path d="M527 2483c-1 1-3 3-5 7-5 9-9 24-13 36l-2 7 55-20-35-30zm-14 3c5-10 11-15 18-12h0 0c1 0 1 1 1 1l43 36c1 0 1 1 2 2 1 3-1 6-3 7l-74 26h0-3c-3-1-4-4-3-7 1-4 3-10 5-16 4-13 9-27 14-37z" fill-rule="nonzero"/></g><path d="M2361 2238h2c2 0 4 1 5 3l25 56 75 168c1 2 0 5-1 6-311 276-638 416-966 417-326 2-653-133-968-407-1-2-2-4-1-6l98-229c1-3 4-4 7-3 0 1 1 1 1 1h0c280 271 571 405 861 404 291-1 582-138 859-409 1-1 2-1 3-1h0zm22 63l-22-51c-278 270-569 407-862 408-290 1-582-132-862-401l-94 218c312 271 636 405 958 403 325-2 648-140 956-412l-74-165z" fill-rule="nonzero"/></svg>